<svg viewBox="0 0 200 200" xmlns="http://www.w3.org/2000/svg">
  <path fill="#FF0066" d="M41.2,-72C54.2,-63.8,66.1,-54.4,73.8,-42.2C81.4,-30,84.8,-15,85.1,0.2C85.5,15.4,82.8,30.8,76.3,45.1C69.9,59.4,59.7,72.6,46.4,79.3C33,85.9,16.5,86.1,1,84.4C-14.5,82.6,-29,79,-41,71.6C-53,64.1,-62.5,52.8,-68.9,40.3C-75.3,27.7,-78.6,13.9,-79.6,-0.5C-80.5,-14.9,-79,-29.9,-73.2,-43.5C-67.5,-57.1,-57.3,-69.5,-44.4,-77.7C-31.5,-86,-15.7,-90.2,-0.8,-88.8C14.1,-87.3,28.2,-80.3,41.2,-72Z" transform="translate(100 100)" />
</svg>