<svg viewBox="0 0 200 200" xmlns="http://www.w3.org/2000/svg">
  <path fill="#FF0066" d="M38,-67.8C50,-59,60.8,-50.2,70.5,-38.9C80.2,-27.6,88.8,-13.8,90.7,1.1C92.7,16,88,32.1,78.3,43.4C68.7,54.8,54,61.4,40.1,69.9C26.2,78.4,13.1,88.7,0.3,88.2C-12.5,87.8,-25.1,76.4,-38.5,67.7C-51.9,58.9,-66.2,52.7,-72.9,41.9C-79.6,31,-78.6,15.5,-76.8,1C-75,-13.4,-72.3,-26.8,-67.3,-40.6C-62.4,-54.3,-55,-68.4,-43.4,-77.4C-31.8,-86.4,-15.9,-90.3,-1.4,-87.8C13,-85.3,26.1,-76.6,38,-67.8Z" transform="translate(100 100)" />
</svg>