<svg viewBox="0 0 200 200" xmlns="http://www.w3.org/2000/svg">
  <path fill="#FF0066" d="M43,-76.1C55.8,-67.1,66.3,-55.7,75.2,-42.6C84.1,-29.5,91.4,-14.8,90.8,-0.3C90.3,14.2,82,28.3,72.4,40.2C62.8,52.2,52.1,61.8,39.8,71.4C27.5,80.9,13.8,90.4,0.4,89.7C-13,89.1,-26,78.3,-38.3,68.8C-50.7,59.3,-62.3,51,-70.8,39.7C-79.3,28.5,-84.6,14.2,-86.3,-1C-88,-16.2,-86.1,-32.4,-78.2,-44.6C-70.3,-56.8,-56.3,-65,-42.2,-73.3C-28.2,-81.6,-14.1,-90,0.5,-90.9C15.1,-91.7,30.2,-85.1,43,-76.1Z" transform="translate(100 100)" />
</svg>