<svg viewBox="0 0 200 200" xmlns="http://www.w3.org/2000/svg">
  <path fill="#FF0066" d="M45.4,-76.9C57.7,-71.5,65.8,-57.1,70.9,-42.8C76,-28.4,78.1,-14.2,79,0.5C80,15.3,79.8,30.6,73,42C66.2,53.3,52.8,60.7,39.5,66.6C26.2,72.4,13.1,76.6,0,76.6C-13.1,76.5,-26.1,72.2,-40.4,67C-54.7,61.8,-70.3,55.7,-78.1,44.4C-85.9,33,-85.9,16.5,-83.5,1.4C-81.1,-13.8,-76.4,-27.6,-70.1,-41.5C-63.8,-55.4,-56,-69.5,-44.1,-75.2C-32.2,-80.8,-16.1,-78.1,0.2,-78.4C16.5,-78.8,33.1,-82.4,45.4,-76.9Z" transform="translate(100 100)" />
</svg>