<?xml version="1.0" encoding="UTF-8" standalone="no"?>
<!DOCTYPE svg PUBLIC "-//W3C//DTD SVG 1.1//EN" "http://www.w3.org/Graphics/SVG/1.1/DTD/svg11.dtd">
<!-- Created with Vectornator (http://vectornator.io/) -->
<svg height="100%" stroke-miterlimit="10" style="fill-rule:nonzero;clip-rule:evenodd;stroke-linecap:round;stroke-linejoin:round;" version="1.1" viewBox="0 0 1920 1080" width="100%" xml:space="preserve" xmlns="http://www.w3.org/2000/svg" xmlns:xlink="http://www.w3.org/1999/xlink">
<defs/>
<clipPath id="ArtboardFrame">
<rect height="1080" width="1920" x="0" y="0"/>
</clipPath>
<g clip-path="url(#ArtboardFrame)" id="Ebene-1">
<path d="M837.458 188.009C834.791 187.676 831.59 185.373 829.458 187.009C816.555 196.912 803.73 207.646 794.458 221.009C780.775 240.729 771.411 263.168 761.458 285.009C759.344 289.649 758.978 294.937 758.458 300.009C757.641 307.974 756.533 316.056 757.458 324.009C759.689 343.199 774.136 359.682 790.458 369.009C796.692 372.572 803.38 375.801 810.458 377.009C817.366 378.189 825.095 378.946 831.458 376.009C838.951 372.551 844.353 365.494 849.458 359.009C856.78 349.709 863.164 339.596 868.458 329.009C875.545 314.836 881.252 299.976 886.458 285.009C891.933 269.268 896.282 253.144 900.458 237.009C903.62 224.793 906.03 212.392 908.458 200.009C909.365 195.383 912.069 190.439 910.458 186.009C909.694 183.908 905.715 187.16 904.458 189.009C899.848 195.789 896.46 203.38 893.458 211.009C888.441 223.761 884.182 236.822 880.458 250.009C871.149 282.977 865.279 316.966 861.458 351.009C859.855 365.288 858.458 379.641 858.458 394.009C858.458 403.065 858.444 412.47 861.458 421.009C862.723 424.593 866.906 429.362 870.458 428.009C876.442 425.73 879.973 418.911 882.458 413.009C888.108 399.59 890.42 384.998 894.458 371.009C899.753 352.665 904.886 334.272 910.458 316.009C922.949 275.068 936.034 234.107 953.458 195.009C958.678 183.296 965.458 172.343 971.458 161.009" fill="none" opacity="1" stroke="#000000" stroke-linecap="round" stroke-linejoin="bevel" stroke-width="10"/>
<path d="M1052.46 306.009C1051.12 304.676 1048.87 300.168 1048.46 302.009C1044.89 318.073 1043.62 334.595 1042.46 351.009C1040.29 381.628 1039.53 412.332 1038.46 443.009C1037.76 462.997 1038.09 483.013 1038.46 503.009C1038.56 508.352 1038.05 513.854 1039.46 519.009C1039.93 520.741 1041.09 515.767 1041.46 514.009C1043.1 506.067 1044.39 498.048 1045.46 490.009C1047.05 478.041 1047.86 465.977 1049.46 454.009C1053.07 426.954 1058.15 400.103 1061.46 373.009C1064.59 347.358 1066.53 321.55 1070.46 296.009C1071.9 286.638 1074.03 277.382 1075.46 268.009C1076.37 262.041 1077.16 256.039 1077.46 250.009C1077.5 249.265 1076.75 247.324 1076.46 248.009C1069.51 264.213 1066.44 281.836 1062.46 299.009C1059.84 310.281 1057.82 321.681 1055.46 333.009C1046.08 378.013 1041.16 424.415 1035.46 470.009C1033.67 484.328 1032.3 498.698 1030.46 513.009C1029.64 519.368 1029.09 525.809 1027.46 532.009C1027.29 532.654 1025.54 532.671 1025.46 532.009C1023.66 516.749 1026.91 501.297 1028.46 486.009C1032.5 446.149 1038.29 407.815 1048.46 369.009C1051.67 356.73 1057.19 345.048 1063.46 334.009C1065.93 329.661 1068.78 325.401 1072.46 322.009C1073.44 321.105 1075.75 320.879 1076.46 322.009C1077.88 324.288 1077.75 327.338 1077.46 330.009C1076.74 336.442 1074.89 342.698 1073.46 349.009C1071.56 357.366 1069.27 365.634 1067.46 374.009C1064.94 385.637 1063.01 397.388 1060.46 409.009C1057.01 424.725 1052.88 440.286 1049.46 456.009C1046.21 470.957 1043.69 486.058 1040.46 501.009C1037.4 515.155 1035.93 530.065 1029.46 543.009C1028.99 543.952 1028.46 541.063 1028.46 540.009C1028.46 533.334 1028.96 526.665 1029.46 520.009C1030.29 508.995 1031.32 497.995 1032.46 487.009C1033.98 472.327 1035.49 457.638 1037.46 443.009C1044.95 387.345 1054.74 332.501 1075.46 280.009C1079.78 269.052 1084.33 258.067 1090.46 248.009C1092.79 244.18 1096.03 239.746 1100.46 239.009C1102.85 238.61 1102.59 243.586 1102.46 246.009C1101.92 255.752 1100.15 265.398 1098.46 275.009C1092.65 308.048 1086.24 335.501 1077.46 368.009C1068.43 401.428 1057.77 434.406 1049.46 468.009C1042.96 494.301 1038.29 521.081 1030.46 547.009C1028.51 553.471 1026.58 560.025 1023.46 566.009C1022.47 567.902 1020.59 570.009 1018.46 570.009C1016.97 570.009 1016.46 567.5 1016.46 566.009C1016.46 558.646 1017.42 551.299 1018.46 544.009C1020.42 530.284 1022.83 516.622 1025.46 503.009C1036.94 443.588 1051.85 384.96 1085.46 334.009C1090.05 327.053 1095.3 320.555 1100.46 314.009C1106.29 306.604 1111.66 297.394 1120.46 294.009C1121.85 293.474 1124.26 294.532 1124.46 296.009C1125.04 300.355 1123.59 304.775 1122.46 309.009C1119.92 318.478 1116.6 327.723 1113.46 337.009C1104.7 362.879 1095.01 388.425 1085.46 414.009C1080.11 428.336 1074.19 442.466 1069.46 457.009C1058.09 491.952 1051.98 527.81 1046.46 564.009C1044.01 580.044 1041.92 596.163 1038.46 612.009C1037.65 615.722 1037.57 619.847 1035.46 623.009C1034.52 624.423 1034.28 619.7 1034.46 618.009C1034.96 613.263 1036.34 608.649 1037.46 604.009C1038.67 598.979 1039.95 593.958 1041.46 589.009C1043.61 581.953 1045.98 574.958 1048.46 568.009C1052.52 556.623 1060.19 552.169 1069.46 545.009C1073.21 542.112 1076.38 538.419 1080.46 536.009C1083.82 534.024 1087.74 530.826 1091.46 532.009C1096.4 533.581 1100.18 538.349 1102.46 543.009C1107.04 552.393 1109.16 562.824 1111.46 573.009C1117.23 598.616 1120.45 627.857 1122.46 654.009C1123.1 662.325 1123.22 670.673 1123.46 679.009C1123.55 682.341 1124.01 685.721 1123.46 689.009C1123.3 689.939 1122.3 691.431 1121.46 691.009C1118.51 689.536 1118.67 677.738 1118.46 675.009C1116.98 655.827 1117.22 638.141 1120.46 619.009C1126 586.262 1132.06 553.6 1138.46 521.009C1145.25 486.42 1151.41 455.625 1164.46 423.009C1169.2 411.159 1176.97 396.638 1189.46 394.009C1191.65 393.549 1193.46 396.009 1195.46 397.009" fill="none" opacity="1" stroke="#000000" stroke-linecap="round" stroke-linejoin="bevel" stroke-width="10"/>
<path d="M836.458 743.009C828.791 737.009 819.064 732.968 813.458 725.009C781.451 679.571 754.125 631.009 724.458 584.009" fill="none" opacity="1" stroke="#000000" stroke-linecap="round" stroke-linejoin="bevel" stroke-width="10"/>
<path d="M886.458 652.009C882.458 636.676 876.56 621.716 874.458 606.009C870.869 579.197 871.125 552.009 869.458 525.009" fill="none" opacity="1" stroke="#000000" stroke-linecap="round" stroke-linejoin="bevel" stroke-width="10"/>
<path d="M996.458 750.009C997.125 750.009 998.576 750.665 998.458 750.009C996.101 736.877 990.869 724.276 989.458 711.009C987.518 692.776 987.837 674.335 988.458 656.009C988.514 654.344 990.458 653.343 991.458 652.009" fill="none" opacity="1" stroke="#000000" stroke-linecap="round" stroke-linejoin="bevel" stroke-width="10"/>
<path d="M949.458 529.009C947.458 530.343 943.185 530.621 943.458 533.009C944.691 543.797 947.332 555.045 953.458 564.009C961.441 575.692 973.476 584.086 984.458 593.009C985.276 593.674 985.41 591.062 985.458 590.009C985.746 583.682 986.157 577.304 985.458 571.009C984.483 562.238 981.88 553.719 980.458 545.009C979.212 537.379 979.024 529.58 977.458 522.009C977.005 519.82 975.222 513.908 974.458 516.009C972.518 521.344 973.576 527.334 973.458 533.009C973.243 543.34 972.868 553.693 973.458 564.009C974.939 589.93 977.561 611.389 985.458 636.009C987.691 642.97 990.113 650.13 994.458 656.009C996.151 658.3 1000.06 660.549 1002.46 659.009C1006.22 656.591 1007.49 651.375 1008.46 647.009C1010.2 639.173 1010.15 631.031 1010.46 623.009C1010.82 613.683 1009.51 604.294 1010.46 595.009C1011.19 587.851 1012.24 580.445 1015.46 574.009C1017.16 570.61 1020.7 567.602 1024.46 567.009C1028 566.449 1031.68 568.736 1034.46 571.009C1039.22 574.901 1043.24 579.775 1046.46 585.009C1051.3 592.882 1054.87 601.49 1058.46 610.009C1070.47 638.549 1079.16 670.647 1099.46 695.009C1102.49 698.649 1105.84 702.959 1110.46 704.009C1114.26 704.874 1118.64 702.706 1121.46 700.009C1126.67 695.025 1130.12 688.402 1133.46 682.009C1138.16 673.007 1141.85 663.5 1145.46 654.009C1150.85 639.82 1154.82 625.104 1160.46 611.009C1166.83 595.077 1173.2 579.049 1181.46 564.009C1186.27 555.244 1193.46 548.009 1199.46 540.009C1201.46 537.343 1203.14 534.406 1205.46 532.009C1212.83 524.381 1219.97 516.375 1228.46 510.009C1243.95 498.392 1267.33 497.586 1280.46 484.009C1294.86 469.108 1301.09 447.972 1309.46 429.009C1318.99 407.412 1326.28 390.189 1342.46 374.009" fill="none" opacity="1" stroke="#000000" stroke-linecap="round" stroke-linejoin="bevel" stroke-width="10"/>
<path d="M1256.46 450.009C1254.23 437.756 1251.5 425.399 1246.46 414.009C1242.29 404.593 1237.32 395.474 1231.46 387.009C1228.24 382.358 1224.23 378.046 1219.46 375.009C1213.03 370.92 1206.07 366.32 1198.46 366.009C1188.85 365.617 1178.95 368.482 1170.46 373.009C1158.51 379.379 1148.33 388.751 1138.46 398.009C1126.93 408.821 1115.89 420.324 1106.46 433.009C1096.46 446.45 1087.95 461.028 1080.46 476.009C1073.9 489.131 1068.62 502.941 1064.46 517.009C1061.58 526.731 1060.12 536.893 1059.46 547.009C1059.11 552.373 1059.34 558.069 1061.46 563.009C1062.59 565.645 1065.81 566.906 1068.46 568.009C1070 568.65 1072.01 567.182 1073.46 568.009C1074.75 568.749 1075.59 570.524 1075.46 572.009C1074.9 578.457 1073.24 584.786 1071.46 591.009C1045.51 681.844 1000.16 765.392 931.458 831.009C916.92 844.893 901.642 858.084 885.458 870.009C869.898 881.474 853.481 891.857 836.458 901.009C822.387 908.574 808.116 916.84 792.458 920.009C779.373 922.657 764.332 924.111 752.458 918.009C738.398 910.784 727.182 897.316 720.458 883.009C711 862.885 706.707 840.21 705.458 818.009C703.676 786.33 705.385 754.152 711.458 723.009C718.48 687 729.588 651.549 744.458 618.009C759.775 583.462 779.576 550.82 801.458 520.009C821.431 491.887 844.638 465.962 869.458 442.009C892.496 419.777 918.49 400.735 944.458 382.009C982.527 354.558 1024 332.008 1065.46 310.009" fill="none" opacity="1" stroke="#000000" stroke-linecap="round" stroke-linejoin="bevel" stroke-width="10"/>
<path d="M1146.46 432.009C1138.46 445.343 1125.59 456.778 1122.46 472.009C1115 508.325 1104.62 547.554 1115.46 583.009C1119.37 595.796 1142.12 580.899 1155.46 580.009C1157.12 579.898 1158.91 579.39 1160.46 580.009C1165.72 582.114 1171.83 583.656 1175.46 588.009C1180.61 594.198 1183.67 602.154 1185.46 610.009C1187.08 617.16 1186.8 624.8 1185.46 632.009C1183.1 644.658 1179.18 657.041 1174.46 669.009C1169.15 682.46 1162.85 695.58 1155.46 708.009C1148.13 720.333 1139.64 731.995 1130.46 743.009C1121.25 754.056 1111.77 765.133 1100.46 774.009C1089.89 782.304 1077.91 788.961 1065.46 794.009C1053.02 799.051 1039.81 802.674 1026.46 804.009C1012.84 805.371 998.856 804.787 985.458 802.009C971.208 799.055 957.44 793.585 944.458 787.009C931.592 780.493 919.596 772.171 908.458 763.009C898.809 755.072 890.573 745.51 882.458 736.009C876.871 729.468 872.288 722.127 867.458 715.009C865.949 712.785 865.07 705.859 863.458 708.009C861.249 710.955 864.077 715.347 864.458 719.009C865.743 731.348 867.383 743.651 868.458 756.009C871.522 791.249 875.317 826.685 873.458 862.009C873.011 870.496 873.6 880.243 868.458 887.009C865.634 890.725 857.71 890.357 854.458 887.009C845.095 877.371 839.246 864.564 834.458 852.009C824.162 825.011 816.424 797.051 809.458 769.009C803.406 744.645 798.144 719.969 795.458 695.009C792.461 667.152 791.866 639.021 792.458 611.009C792.869 591.577 795.874 572.273 798.458 553.009C799.544 544.91 803.118 537.174 803.458 529.009C803.514 527.677 800.401 528.066 799.458 529.009C793.09 535.378 787.717 542.698 782.458 550.009C774.036 561.717 766.102 573.779 758.458 586.009C747.763 603.122 737.435 620.469 727.458 638.009C706.567 674.738 687.641 712.682 664.458 748.009C654.763 762.782 645.408 777.993 633.458 791.009C626.514 798.574 618.724 808.8 608.458 809.009C598.656 809.209 589.924 800.148 584.458 792.009C574.379 777.003 568.116 759.476 563.458 742.009C557.372 719.187 554.203 695.564 552.458 672.009C550.857 650.399 551.81 628.616 553.458 607.009C554.817 589.194 557.878 571.514 561.458 554.009C563.89 542.122 567.198 530.37 571.458 519.009C573.245 514.245 576.147 509.872 579.458 506.009C580.352 504.966 582.545 503.982 583.458 505.009C585.843 507.692 586.387 511.583 587.458 515.009C589.725 522.264 591.313 529.717 593.458 537.009C596.314 546.719 598.863 556.548 602.458 566.009C605.212 573.257 605.788 583.057 612.458 587.009C617.539 590.02 625.502 586.395 629.458 582.009C641.598 568.549 649.522 551.779 658.458 536.009C672.205 511.751 683.185 485.962 697.458 462.009C726.672 412.984 761.655 366.907 801.458 326.009C818.082 308.928 835.481 292.431 854.458 278.009C868.977 266.975 884.447 256.581 901.458 250.009C914.342 245.031 928.647 243.817 942.458 244.009C953.05 244.156 964.359 245.585 973.458 251.009C982.589 256.453 989.704 265.501 994.458 275.009C1000.64 287.378 1003.18 301.369 1005.46 315.009C1008.21 331.502 1008.64 348.309 1009.46 365.009C1010.31 382.325 1009.68 399.69 1010.46 417.009C1011.01 429.371 1009.45 442.302 1013.46 454.009C1014.54 457.179 1021.57 457.776 1023.46 455.009C1032.05 442.431 1035.88 427.185 1041.46 413.009C1051.22 388.174 1058.28 362.243 1069.46 338.009C1084.01 306.457 1099.92 275.394 1118.46 246.009C1135.36 219.228 1154.7 193.921 1175.46 170.009C1192.15 150.784 1211.76 134.29 1230.46 117.009C1233.79 113.932 1237.79 111.676 1241.46 109.009" fill="none" opacity="1" stroke="#000000" stroke-linecap="round" stroke-linejoin="bevel" stroke-width="10"/>
<path d="M713.795 488.831C713.795 492.068 715.987 495.028 717.929 497.617C718.682 498.62 717.178 495.221 716.896 493.999C716.369 491.716 715.569 489.504 714.828 487.281C713.129 482.183 712.961 477.032 712.244 471.776C712.007 470.036 711.429 468.351 711.211 466.608C711.083 465.583 711.211 462.474 711.211 463.507C711.211 474.75 711.812 486.101 714.312 497.1C714.553 498.163 714.371 499.714 715.345 500.201C716.034 500.546 716.135 498.865 716.379 498.134C717 496.27 717.412 494.344 717.929 492.449C718.349 490.912 719.952 480.143 723.614 486.247C724.685 488.032 725.54 489.957 726.198 491.932C727.097 494.627 727.576 497.445 728.265 500.201C728.61 501.579 728.955 502.957 729.299 504.335" fill="none" opacity="1" stroke="#000000" stroke-linecap="round" stroke-linejoin="bevel" stroke-width="10"/>
<path d="M737.051 488.831C738.379 488.167 743.064 488.906 743.77 487.797C745.005 485.856 744.46 475.241 741.186 474.877C738.275 474.554 737.514 479.738 737.051 482.629C736.696 484.847 736.445 487.104 736.534 489.348C736.89 498.225 743.33 503.838 751.522 505.886" fill="none" opacity="1" stroke="#000000" stroke-linecap="round" stroke-linejoin="bevel" stroke-width="10"/>
<path d="M757.724 480.562C757.379 480.045 756.742 478.393 756.69 479.012C756.475 481.593 757.144 484.175 757.207 486.764C757.316 491.242 756.329 495.809 757.207 500.201C757.451 501.419 758.719 498.211 759.274 497.1C760.454 494.741 762.108 488.059 765.476 486.764C769.862 485.077 772.432 502.981 772.711 503.819" fill="none" opacity="1" stroke="#000000" stroke-linecap="round" stroke-linejoin="bevel" stroke-width="10"/>
<path d="M779.43 484.18C782.234 484.18 784.898 485.864 787.699 485.73C798.467 485.217 785.65 468.978 782.531 470.226C778.766 471.732 779.824 478.06 779.947 482.113C780.205 490.63 783.266 501.751 793.384 501.751" fill="none" opacity="1" stroke="#000000" stroke-linecap="round" stroke-linejoin="bevel" stroke-width="10"/>
<path d="M808.888 433.532C808.544 433.188 807.98 432.028 807.854 432.499C806.409 437.918 805.752 443.517 804.754 449.037C802.823 459.711 800.801 470.371 799.069 481.079C798.904 482.099 798.983 483.15 799.069 484.18C799.156 485.224 798.569 487.535 799.585 487.281C801.362 486.837 802.208 484.684 803.203 483.146C805.296 479.912 806.179 475.977 808.371 472.81C808.725 472.299 809.62 471.233 809.922 471.776C810.857 473.46 810.757 475.545 810.955 477.461C811.275 480.55 810.978 483.698 811.472 486.764C812.297 491.88 812.993 492.572 815.09 496.066" fill="none" opacity="1" stroke="#000000" stroke-linecap="round" stroke-linejoin="bevel" stroke-width="10"/>
<path d="M741.703 172.542C739.635 174.265 736.771 175.338 735.501 177.711C727.534 192.593 719.875 207.769 714.312 223.707C707.082 244.42 702.509 265.974 697.257 287.275C694.941 296.665 694.532 306.567 695.19 316.216C695.327 318.228 695.403 321.107 697.257 321.901C699.027 322.66 700.972 320.581 702.425 319.317C711.628 311.314 717.351 297.97 723.614 287.791C730.946 275.877 735.793 268.555 741.186 255.232C748.258 237.76 753.097 219.463 758.757 201.484C764.059 184.643 769.574 167.859 774.262 150.836C775.63 145.868 780.902 132.787 774.779 135.849" fill="none" opacity="1" stroke="#000000" stroke-linecap="round" stroke-linejoin="bevel" stroke-width="5"/>
<path d="M601.647 376.683C601.647 376.166 601.521 375.634 601.647 375.133C601.872 374.233 602.911 371.65 602.68 372.549C600.729 380.159 598.503 387.697 596.479 395.288C595.296 399.725 593.001 409.109 592.344 413.377C592.161 414.568 591.402 416.241 592.344 416.994C592.701 417.28 596.312 414.235 599.579 412.343C605.039 409.182 609.57 406.815 610.432 415.444C610.775 418.872 610.513 422.336 610.432 425.78C610.34 429.745 610.088 433.705 609.916 437.667" fill="none" opacity="1" stroke="#000000" stroke-linecap="round" stroke-linejoin="bevel" stroke-width="5"/>
<path d="M620.252 418.545C621.614 419.907 624.014 419.685 625.937 419.578C627.494 419.492 629.31 419.956 630.588 419.062C632.826 417.495 629.452 408.599 627.487 407.692C626.226 407.11 624.437 407.341 623.353 408.209C620.102 410.809 617.643 419.43 617.151 422.679C615.457 433.859 620.417 440.674 631.622 438.184" fill="none" opacity="1" stroke="#000000" stroke-linecap="round" stroke-linejoin="bevel" stroke-width="5"/>
<path d="M639.891 425.263C640.063 424.057 640.569 420.438 640.408 421.646C639.902 425.437 639.398 429.229 638.857 433.015C638.709 434.053 638.546 435.089 638.34 436.116C638.201 436.813 637.232 437.79 637.823 438.184C639.464 439.277 640.326 435.482 643.508 432.499C644.138 431.908 649.607 427.578 651.777 428.881C655.059 430.85 652.812 450.929 656.429 437.667C656.53 437.295 656.773 436.978 656.945 436.633" fill="none" opacity="1" stroke="#000000" stroke-linecap="round" stroke-linejoin="bevel" stroke-width="5"/>
<path d="M660.563 428.364C666.076 428.364 667.512 437.929 672.967 437.15C677.008 436.573 673.923 423.741 670.383 422.679C666.766 421.594 666.368 428.848 666.248 429.398C665.803 431.446 665.214 433.504 665.214 435.6C665.214 442.184 668.396 444.868 674 446.969" fill="none" opacity="1" stroke="#000000" stroke-linecap="round" stroke-linejoin="bevel" stroke-width="5"/>
<path d="M691.572 402.007C686.938 412.201 685.221 423.534 683.303 434.566C682.8 437.456 682.211 440.475 682.786 443.352C682.937 444.107 684.341 442.894 684.853 442.318C685.776 441.28 686.193 439.883 686.921 438.7C687.572 437.642 688.109 436.478 688.988 435.6C689.231 435.356 689.893 435.28 690.021 435.6C692.826 442.611 691.32 450.726 695.706 457.306" fill="none" opacity="1" stroke="#000000" stroke-linecap="round" stroke-linejoin="bevel" stroke-width="5"/>
<path d="M1331.53 565.602C1331.53 553.332 1332.92 541.086 1334.36 528.9" fill="none" opacity="1" stroke="#000000" stroke-linecap="round" stroke-linejoin="bevel" stroke-width="5"/>
<path d="M1441.64 708.178C1448.7 721.353 1455.91 734.447 1462.82 747.704C1467.68 757.036 1471.52 784.959 1476.93 775.937C1483.22 765.461 1470.24 752.439 1467.05 740.646C1465.53 735.027 1464.13 729.377 1462.82 723.706C1456.76 697.447 1450.39 671.223 1445.88 644.654C1443.97 633.434 1441.64 622.156 1441.64 610.775C1441.64 604.955 1440.25 595.335 1445.88 593.835C1452.43 592.087 1458.32 600.048 1462.82 605.128C1473.12 616.758 1480.87 630.416 1489.64 643.243C1500.17 658.651 1510.75 674.034 1520.69 689.827C1526.76 699.458 1531.99 709.59 1537.63 719.471" fill="none" opacity="1" stroke="#000000" stroke-linecap="round" stroke-linejoin="bevel" stroke-width="5"/>
<path d="M1584.22 664.417C1592.69 681.827 1601.08 699.278 1609.63 716.648C1616.13 729.864 1621.22 743.917 1629.39 756.174C1633.64 762.547 1640.57 776.746 1646.33 771.702C1652.86 765.988 1643.2 754.596 1640.68 746.292C1638.48 739.017 1635.04 732.176 1632.21 725.118" fill="none" opacity="1" stroke="#000000" stroke-linecap="round" stroke-linejoin="bevel" stroke-width="5"/>
<path d="M1589.86 575.484C1602.48 600.711 1613.74 626.833 1629.39 650.301C1636.98 661.682 1645.79 672.498 1656.21 681.357C1658.04 682.911 1657.89 676.683 1657.62 674.299C1656.46 663.841 1654.53 653.45 1651.98 643.243C1650.28 636.456 1647.27 630.067 1644.92 623.48" fill="none" opacity="1" stroke="#000000" stroke-linecap="round" stroke-linejoin="bevel" stroke-width="5"/>
<path d="M1616.69 520.43C1630.28 558.955 1645.34 596.554 1666.09 631.949C1667.04 633.573 1666.55 628.129 1666.09 626.303C1663.71 616.771 1660.62 607.426 1657.62 598.07C1652.62 582.484 1647.27 567.014 1642.1 551.486" fill="none" opacity="1" stroke="#000000" stroke-linecap="round" stroke-linejoin="bevel" stroke-width="5"/>
<path d="M1620.92 438.555C1624.68 451.73 1627.88 465.081 1632.21 478.081C1637.3 493.337 1644.78 507.778 1649.15 523.253C1650.95 529.609 1657.04 541.721 1650.57 543.016C1643.96 544.337 1644.77 530.849 1642.1 524.665C1637.24 513.436 1632.68 502.079 1627.98 490.785" fill="none" opacity="1" stroke="#000000" stroke-linecap="round" stroke-linejoin="bevel" stroke-width="5"/>
<path d="M1544.69 310.096C1542.34 312.919 1538.75 315.065 1537.63 318.565C1534.88 327.186 1532.8 336.355 1533.4 345.387C1535.18 372.412 1540.51 399.091 1544.69 425.85C1545.22 429.235 1546.9 432.361 1547.52 435.731C1547.85 437.583 1548.74 442.807 1547.52 441.378C1537.93 430.194 1534 415.193 1527.75 401.852C1521.15 387.743 1514.24 373.77 1507.99 359.503C1491.36 321.569 1477.29 282.557 1462.82 243.748C1459.28 234.251 1456.79 224.174 1451.52 215.516C1449.88 212.819 1445.98 210.108 1443.05 211.281C1439.53 212.69 1438.9 217.675 1437.41 221.162C1434.65 227.592 1431.83 234.088 1430.35 240.925C1428.04 251.593 1426.66 262.492 1426.11 273.393C1422.87 338.273 1437.02 400.868 1450.11 463.964C1454.42 484.7 1459.32 505.12 1462.82 526.076C1463.28 528.861 1464.24 536.985 1462.82 534.546C1458.24 526.696 1455.66 517.808 1452.94 509.137C1448.12 493.78 1443.94 478.215 1440.23 462.553C1430.6 421.886 1423.29 380.12 1423.29 338.328C1423.29 327.881 1425.62 317.545 1427.53 307.272C1428.96 299.544 1434.15 294.865 1441.64 291.744C1443.43 290.998 1446.1 291.624 1447.29 293.156C1456.26 304.694 1465.1 316.617 1471.29 329.859C1482.13 353.057 1490.37 377.441 1498.11 401.852C1508.74 435.37 1516.8 469.647 1526.34 503.49C1536.56 539.759 1545.08 576.574 1557.4 612.186C1566.77 639.28 1578.82 665.417 1591.28 691.238C1598.15 705.485 1604.65 720.455 1615.27 732.176C1619.18 736.489 1629.22 741.402 1632.21 736.411C1639.03 725.048 1636.45 710.136 1636.45 696.885C1636.45 681.761 1633.78 666.755 1632.21 651.712C1626.68 598.595 1613.52 546.41 1605.39 493.609C1604.31 486.571 1603.19 479.528 1602.57 472.434C1601.3 457.872 1598.53 443.24 1599.75 428.673C1600.02 425.358 1604.64 419.089 1606.8 421.615C1613 428.849 1613.93 439.315 1616.69 448.436C1621.47 464.28 1625.42 480.365 1629.39 496.432C1640.47 541.324 1651.14 586.388 1659.03 631.949C1661.79 647.822 1664.68 663.836 1664.68 679.945C1664.68 686.08 1664.08 692.215 1663.27 698.297C1663.13 699.339 1662.77 701.642 1661.86 701.12C1658.39 699.139 1655.13 696.243 1653.39 692.65C1647.48 680.459 1643.34 667.458 1639.27 654.536C1632.51 633.082 1625.61 611.6 1620.92 589.6C1614.77 560.697 1609.34 531.52 1606.8 502.079C1604.62 476.763 1602.02 450.805 1606.8 425.85C1608.9 414.943 1615.75 401.552 1626.57 399.029C1635.73 396.89 1644.54 407.766 1649.15 415.969C1657.84 431.407 1660.81 449.502 1664.68 466.788C1668.84 485.361 1670.18 504.454 1673.15 523.253C1679.81 565.395 1684.4 607.851 1688.68 650.301C1691.8 681.328 1696.05 712.304 1697.15 743.469C1697.93 765.591 1699.22 788.228 1694.33 809.816C1691.02 824.393 1683.18 838.258 1673.15 849.342C1664.65 858.737 1652.96 865.975 1640.68 869.105C1627.91 872.361 1613.82 871.369 1601.16 867.693C1583.98 862.706 1567.55 854.321 1553.16 843.695C1536.57 831.441 1521.78 816.438 1509.4 799.935C1494.73 780.371 1483.33 758.434 1472.7 736.411C1463.5 717.366 1457.1 697.083 1450.11 677.122C1439.29 646.195 1434.68 613.389 1428.94 581.13C1427.02 570.385 1428.53 558.882 1424.7 548.663C1423.7 545.983 1418.21 545.178 1416.23 547.251C1407.77 556.136 1401.14 566.961 1396.47 578.307C1387.86 599.228 1381.38 621.105 1376.71 643.243C1370.52 672.543 1366.84 702.365 1364 732.176C1361.19 761.72 1362.26 791.536 1359.77 821.109C1358.49 836.296 1355.4 851.281 1352.71 866.282C1352.1 869.653 1352.09 873.543 1349.89 876.163C1344.3 882.8 1338.8 893.103 1330.12 893.103C1321.8 893.103 1315.32 883.692 1311.77 876.163C1303.2 857.982 1299.02 837.947 1294.83 818.286C1288.18 787.038 1282.12 755.531 1279.3 723.706C1275.99 686.197 1274.23 648.363 1276.48 610.775C1278.48 577.492 1284.15 544.364 1292.01 511.96C1299.27 482.025 1308.18 452.139 1321.65 424.438C1333.35 400.377 1348.75 377.814 1366.83 358.091C1380.24 343.453 1397.56 332.621 1414.82 322.8C1425.17 316.913 1437.13 314.312 1448.7 311.507C1452.82 310.509 1457.59 309.66 1461.41 311.507C1473.62 317.429 1487.95 322.676 1495.28 334.093C1505.91 350.623 1509.37 371.118 1512.22 390.559C1516.47 419.456 1515.84 448.879 1516.46 478.081C1517.25 515.245 1515.34 552.444 1516.46 589.6C1518.79 667.057 1525.1 744.638 1537.63 821.109C1541.14 842.515 1546.4 863.612 1551.75 884.633C1553 889.544 1552.36 898.19 1557.4 898.749C1562.21 899.284 1562.61 890.524 1564.46 886.045C1565.93 882.457 1566.9 878.613 1567.28 874.752C1569.26 854.566 1570.97 834.326 1571.51 814.051C1572.38 781.595 1571.3 749.115 1571.51 716.648C1571.77 676.649 1570.16 636.562 1572.92 596.658C1575.81 555.028 1581.51 513.583 1588.45 472.434C1594.23 438.212 1601.72 404.227 1611.04 370.796C1615.4 355.141 1620 338.886 1629.39 325.624C1631.82 322.189 1635.72 332.763 1635.04 336.917C1631.8 356.756 1624.32 375.678 1618.1 394.794C1611.61 414.75 1603.94 434.305 1596.92 454.083C1580.94 499.135 1564.05 543.882 1546.1 588.189C1515.62 663.438 1482.14 737.445 1451.52 812.639C1439.33 842.584 1428.57 873.1 1416.23 902.984C1407.39 924.403 1398.49 945.847 1388 966.508C1382.92 976.516 1378.34 987.633 1369.65 994.741C1366.29 997.488 1359.24 995.596 1356.94 991.918C1351.26 982.819 1351.08 971.271 1348.47 960.862C1346.84 954.325 1345.26 947.758 1344.24 941.099C1339.14 907.748 1332.6 874.52 1330.12 840.872C1326.94 797.689 1324.65 754.221 1327.3 711.001C1330.32 661.715 1338.05 612.74 1347.06 564.191C1355.02 521.326 1363.17 478.097 1378.12 437.143C1386.94 412.961 1398.18 387.642 1417.64 370.796C1426.21 363.38 1443.51 365.606 1451.52 373.619C1462.68 384.774 1464.57 403.053 1465.64 418.792C1467.44 445.148 1462.99 471.597 1459.99 497.844C1453.03 558.78 1439.12 622.361 1423.29 681.357C1420.21 692.854 1415.47 703.849 1412 715.236C1400.41 753.262 1389.04 791.356 1378.12 829.579C1369.28 860.531 1361.78 891.86 1352.71 922.747C1346.71 943.164 1339.78 963.295 1332.95 983.448C1330.36 991.063 1330.65 1000.89 1324.48 1006.03C1320.5 1009.35 1323.88 995.648 1324.48 990.506C1326.71 971.137 1330.34 951.952 1332.95 932.629C1335.99 910.071 1338.72 887.471 1341.42 864.87C1347.74 811.869 1356.36 759.107 1366.83 706.766C1377.89 651.465 1388.51 595.966 1403.53 541.604C1415.85 496.996 1430.2 452.74 1448.7 410.322C1460.93 382.288 1477.79 356.358 1495.28 331.27C1502.9 320.353 1526.13 289.987 1523.52 303.037C1520.5 318.102 1503.22 326.133 1493.87 338.328C1475.44 362.384 1456.76 386.333 1440.23 411.734C1418.13 445.687 1397.01 480.357 1378.12 516.195C1360.25 550.095 1345.53 585.572 1330.12 620.656C1308.02 670.981 1290.4 723.161 1270.83 774.525C1249.43 830.703 1229.94 887.666 1212.96 945.334C1198.67 993.833 1191.32 1044.35 1174.84 1092.14C1174.21 1093.98 1173.2 1088.42 1173.43 1086.5C1175.57 1068.52 1178.76 1050.68 1181.9 1032.86C1187.71 999.86 1193.48 966.851 1200.25 934.04C1209.02 891.552 1217.53 848.968 1228.48 806.993C1242.48 753.397 1257.55 700.028 1275.07 647.477C1287.23 611.004 1302.61 575.672 1317.42 540.193C1322.85 527.181 1328.71 514.284 1335.77 502.079C1356.5 466.242 1377.49 430.486 1400.7 396.206C1428.48 355.194 1461.4 317.848 1493.87 280.451C1497.15 276.674 1507.29 265.621 1503.75 269.158C1475.33 297.582 1451.67 330.582 1428.94 363.738C1405.47 397.971 1382.64 432.675 1361.18 468.199C1273.61 613.134 1216.27 772.542 1159.31 931.217C1144.48 972.538 1132.07 1014.76 1115.55 1055.44C1106.61 1077.47 1098.83 1101.15 1083.09 1118.97C1078.37 1124.3 1064.62 1122.73 1061.91 1116.14C1053.07 1094.66 1054.12 1070.19 1053.44 1046.97C1052.23 1005.57 1052.02 963.948 1056.26 922.747C1061.45 872.422 1067.46 821.668 1081.67 773.113C1095.89 724.548 1118.22 678.565 1140.96 633.361C1155.98 603.508 1176.23 576.573 1194.61 548.663C1225.41 501.891 1263.29 460.192 1297.66 415.969C1336.86 365.509 1374.86 314.098 1412 262.1" fill="none" opacity="1" stroke="#000000" stroke-linecap="round" stroke-linejoin="bevel" stroke-width="5"/>
<path d="M1080.26 760.409C1058.62 798.523 1036.5 836.374 1015.33 874.752C998.854 904.609 984.989 935.923 967.331 965.096C963.196 971.928 950.961 990.001 950.392 982.036C949.009 962.684 959.464 944.305 964.508 925.571C975.935 883.129 987.123 840.608 999.799 798.523C1010.66 762.476 1023.33 727 1035.09 691.238" fill="none" opacity="1" stroke="#000000" stroke-linecap="round" stroke-linejoin="bevel" stroke-width="5"/>
<path d="M1083.09 411.734C1077.91 402.793 1070.03 394.943 1067.56 384.912C1061.42 360.035 1060.97 334.093 1057.68 308.684" fill="none" opacity="1" stroke="#000000" stroke-linecap="round" stroke-linejoin="bevel" stroke-width="5"/>
<path d="M992.741 103.996C989.918 109.643 986.369 114.981 984.271 120.936C971.763 156.444 955.501 191.143 948.98 228.22C931.411 328.125 922.521 429.392 912.277 530.311C909.806 554.659 910.866 579.244 910.866 603.717C910.866 622.544 912.277 641.354 912.277 660.182C912.277 663.51 912.306 673.063 910.866 670.064C901.141 649.804 896.347 627.515 888.279 606.54" fill="none" opacity="1" stroke="#000000" stroke-linecap="round" stroke-linejoin="bevel" stroke-width="5"/>
<path d="M776.76 173.166C774.878 172.225 772.553 168.808 771.113 170.343C764.324 177.585 756.505 185.869 755.585 195.753C746.99 288.148 745.499 381.088 742.881 473.846C742.203 497.853 743.411 521.933 745.704 545.839C750.005 590.691 755.602 635.442 762.644 679.945C767.374 709.842 772.492 739.828 780.995 768.879C783.897 778.793 786.987 799.673 796.523 795.7C806.956 791.352 798.712 773.096 797.935 761.82C795.882 732.064 791.753 702.484 788.053 672.887C784.223 642.248 779.583 611.716 775.348 581.13" fill="none" opacity="1" stroke="#000000" stroke-linecap="round" stroke-linejoin="bevel" stroke-width="5"/>
<path d="M752.762 226.809C748.057 180.225 761.242 128.064 738.646 87.0564C726.653 65.2918 717.992 133.014 714.648 157.638C702.385 247.937 696.128 339.049 692.062 430.085C690.003 476.174 692.309 522.463 696.296 568.426C701.26 625.642 708.724 682.708 718.883 739.234C727.099 784.952 738.748 830.043 751.35 874.752C758.538 900.251 768.264 924.998 778.172 949.568C780.075 954.289 787.478 967.294 786.641 962.273C784.44 949.063 778.024 936.912 773.937 924.159C766.26 900.208 758.761 876.2 751.35 852.165C741.351 819.734 730.038 787.662 721.706 754.762C711.669 715.13 702.173 675.232 696.296 634.773C689.916 590.842 687.711 546.387 685.003 502.079C682.533 461.662 681.557 421.161 680.768 380.678C679.732 327.483 679.575 273.926 686.415 221.162C686.989 216.735 689.318 204.197 690.65 208.457C694.17 219.722 693.473 231.947 693.473 243.748C693.473 273.878 692.332 304.011 690.65 334.093C688.096 379.784 682.55 425.295 680.768 471.022C678.313 534.035 675.694 597.162 677.945 660.182C679.935 715.912 686.695 771.404 693.473 826.756C697.996 863.689 705.084 900.27 711.824 936.864C714.968 953.929 720.354 970.551 723.118 987.683C723.555 990.391 719.912 983.168 718.883 980.625C711.899 963.37 704.469 946.224 699.12 928.394C688.921 894.396 679.956 860.003 672.299 825.344C662.066 779.027 652.278 732.536 645.477 685.592C637.677 631.747 631.932 577.554 628.538 523.253C625.338 472.055 624.964 420.677 625.714 369.384C626.376 324.156 628.583 278.906 632.773 233.867C638.254 174.943 650.622 116.815 662.417 58.8236C663.466 53.6683 666.904 38.3047 665.24 43.2956C661.234 55.3153 658.306 67.6758 655.359 79.9982C647.952 110.973 640.1 141.873 634.184 173.166C625.506 219.078 616.854 265.08 611.598 311.507C605.549 364.94 600.787 418.662 600.305 472.434C599.844 523.799 603.33 575.225 608.775 626.303C613.227 668.072 620.22 709.664 629.949 750.527C636.739 779.044 646.518 806.921 658.182 833.814C663.583 846.266 669.972 859.468 680.768 867.693C684.299 870.384 687.24 860.8 687.827 856.4C690.128 839.136 689.979 821.57 689.238 804.17C688.094 777.27 684.45 750.534 682.18 723.706C679.274 689.363 676.21 655.031 673.71 620.656C667.391 533.772 662.844 446.611 663.829 359.503C664.526 297.82 668.93 236.234 670.887 174.578C671.544 153.879 670.728 133.137 669.475 112.466C669.33 110.071 670.136 106.617 668.064 105.408C663.519 102.757 656.318 98.9281 652.536 102.584C640.235 114.475 632.068 130.46 625.714 146.345C613.11 177.856 604.92 210.985 596.07 243.748C582.797 292.887 568.473 341.892 559.367 391.971C548.676 450.772 541.196 510.236 536.781 569.837C532.714 624.749 532.407 679.959 533.958 734.999C535.234 780.31 540.14 825.477 545.251 870.517C547.676 891.886 552.114 912.995 556.544 934.04C557.77 939.865 560.014 945.44 562.191 950.98C565.196 958.629 564.722 969.891 572.072 973.566C577.14 976.1 574.133 962.255 573.484 956.627C571.294 937.645 566.563 919.038 563.602 900.161C559.034 871.037 554.378 841.913 550.898 812.639C540.831 727.961 535.673 642.369 538.193 557.133C542.425 413.943 566.466 275.203 600.305 136.464C615.51 74.1218 632.512 16.1257 649.712-45.6377C652.835-56.8517 658.957-67.9022 658.182-79.5171C657.825-84.8702 650.906-71.5022 648.301-66.8123C636.752-46.0248 625.917-24.8245 615.833-3.28852C598.146 34.4846 580.398 72.2861 565.014 111.054C545.085 161.276 525.605 211.795 509.96 263.511C491.685 323.919 476.134 385.217 463.376 447.025C454.927 487.953 451.915 529.818 446.436 571.249C439.699 622.201 437.995 673.743 436.555 725.118C436.146 739.699 435.795 754.311 436.555 768.879C438.619 808.451 440.493 848.09 445.025 887.456C448.033 913.588 452.599 939.619 459.141 965.096C461.601 974.678 462.37 989.075 471.846 991.918C479.071 994.085 473.984 976.84 473.257 969.331C471.148 947.539 466.005 926.132 463.376 904.396C458.945 867.768 455.288 831.044 452.083 794.288C448.229 750.102 443.531 705.928 442.201 661.594C440.706 611.736 441.629 561.801 443.613 511.96C445.396 467.172 448.985 422.45 453.494 377.854C460.672 306.879 472.118 236.354 484.55 166.108C488.394 144.39 493.878 122.968 497.255 101.173C499.062 89.5107 501.382 77.6109 500.079 65.8818C499.799 63.3634 494.683 61.1464 493.02 63.0586C484.018 73.4107 477.534 85.866 471.846 98.3496C460.54 123.158 451.383 148.907 442.201 174.578C428.32 213.388 413.946 252.097 402.675 291.744C387.572 344.876 373.68 398.448 363.149 452.671C351.541 512.444 342.147 572.75 336.328 633.361C330.838 690.553 329.27 748.126 329.27 805.581C329.27 855.515 331.227 905.543 336.328 955.215C340.185 992.77 347.428 1029.99 356.091 1066.73C361.111 1088.02 368.902 1108.63 377.266 1128.85C380.26 1136.08 382.541 1151.09 389.971 1148.61C397.559 1146.08 390.948 1132.55 389.971 1124.61C387.174 1101.89 382.302 1079.46 378.677 1056.85C372.42 1017.82 365.648 978.859 360.326 939.687C353.883 892.263 346.557 844.866 343.386 797.111C339.021 731.353 338.03 665.384 337.74 599.482C337.559 558.52 339.309 517.544 341.975 476.669C349.758 357.325 366.267 239.23 391.382 122.347C396.465 98.6919 402.78 75.3177 408.322 51.7654C410.309 43.3196 412.345 34.8791 413.968 26.3559C414.233 24.9692 415.38 22.121 413.968 22.121C411.972 22.121 410.841 24.6948 409.734 26.3559C407.983 28.9823 406.7 31.907 405.499 34.8258C396.815 55.9137 387.706 76.8534 380.089 98.3496C366.522 136.64 354.292 175.394 341.975 214.104C324.646 268.565 306.34 322.757 291.156 377.854C273.387 442.328 255.5 506.932 243.16 572.661C232.402 629.965 227.585 688.256 221.985 746.292C214.066 828.366 211.705 910.91 209.281 993.329C208.838 1008.39 210.346 1023.64 207.869 1038.5C207.523 1040.58 202.908 1037.67 202.222 1035.68C197.98 1023.37 195.593 1010.45 193.753 997.564C190.409 974.157 188.169 950.581 186.694 926.982C184.403 890.324 183.068 853.599 182.46 816.874C181.656 768.415 180.298 719.893 182.46 671.475C185.007 614.402 189.236 557.324 196.576 500.667C204.309 440.98 215.107 381.668 227.632 322.8C238.652 271.005 252.571 219.838 267.158 168.932C275.643 139.321 287.062 110.631 296.802 81.4099C305.743 54.5887 315.007 27.8733 323.624 0.946403C325.397-4.59703 327.035-10.2314 327.858-15.9933C328.925-23.4609 335.912-35.0032 329.27-38.5795C322.375-42.2924 314.846-31.6043 309.507-25.8748C295.327-10.6573 282.845 6.1693 271.393 23.5326C253.62 50.4788 236.838 78.1598 221.985 106.819C203.386 142.709 185.96 179.308 171.166 216.927C152.977 263.179 137.916 310.629 123.171 358.091C107.791 407.594 92.7405 457.277 80.8215 507.725C72.4793 543.034 68.7158 579.27 62.4701 615.01C60.2458 627.738 56.897 640.289 55.4119 653.124C50.3049 697.263 45.6808 741.484 42.7072 785.818C40.502 818.696 39.5949 851.683 39.8839 884.633C40.0659 905.384 42.3365 926.07 44.1188 946.745C44.6904 953.375 42.9494 961.184 46.9421 966.508C49.7795 970.291 48.3537 957.121 48.3537 952.392C48.3537 934.975 47.2939 917.574 46.9421 900.161C46.3528 870.989 45.5305 841.817 45.5305 812.639C45.5305 772.17 44.4564 731.632 46.9421 691.238C50.1084 639.786 55.9079 588.5 62.4701 537.37C75.0361 439.46 97.2408 341.98 121.759 246.572C139.664 176.897 159.446 107.679 181.048 39.0607C187.616 18.1961 194.5-2.58604 202.222-23.0515C203.933-27.5841 211.447-40.0894 209.281-35.7562C168.515 45.7752 127.764 126.621 93.5262 211.281C77.8491 250.046 64.4441 289.759 52.5887 329.859C40.2189 371.697 26.4676 413.168 15.886 455.494C3.86607 503.574-5.71682 552.244-15.1701 600.893C-25.0124 651.545-35.1396 702.208-41.9912 753.35C-48.3269 800.641-51.7694 848.302-54.696 895.926C-56.9479 932.572-57.5193 969.319-57.5193 1006.03C-57.5193 1021.12-58.953 1036.73-54.696 1051.21C-52.665 1058.11-51.8727 1037.09-50.4611 1030.03" fill="none" opacity="1" stroke="#000000" stroke-linecap="round" stroke-linejoin="bevel" stroke-width="5"/>
</g>
</svg>
