<?xml version="1.0" encoding="UTF-8" standalone="no"?>
<!DOCTYPE svg PUBLIC "-//W3C//DTD SVG 1.1//EN" "http://www.w3.org/Graphics/SVG/1.1/DTD/svg11.dtd">
<!-- Created with Vectornator (http://vectornator.io/) -->
<svg height="100%" stroke-miterlimit="10" style="fill-rule:nonzero;clip-rule:evenodd;stroke-linecap:round;stroke-linejoin:round;" version="1.1" viewBox="0 0 265 265" width="100%" xml:space="preserve" xmlns="http://www.w3.org/2000/svg" xmlns:xlink="http://www.w3.org/1999/xlink">
<defs/>
<g id="Ebene-1">
<path d="M83.0801 132.503C83.0801 105.209 105.206 83.0828 132.5 83.0828C159.794 83.0828 181.92 105.209 181.92 132.503C181.92 159.797 159.794 181.923 132.5 181.923C105.206 181.923 83.0801 159.797 83.0801 132.503Z" fill="#a1b9d6" fill-opacity="0" fill-rule="nonzero" opacity="1" stroke="#000000" stroke-linecap="butt" stroke-linejoin="bevel" stroke-width="20"/>
<path d="M252.598 132.503L212.171 132.503" fill="none" opacity="1" stroke="#000000" stroke-linecap="round" stroke-linejoin="bevel" stroke-width="20"/>
<path d="M217.42 217.424L188.834 188.838" fill="none" opacity="1" stroke="#000000" stroke-linecap="round" stroke-linejoin="bevel" stroke-width="20"/>
<path d="M132.5 252.6L132.5 212.174" fill="none" opacity="1" stroke="#000000" stroke-linecap="round" stroke-linejoin="bevel" stroke-width="20"/>
<path d="M47.5762 217.424L76.162 188.838" fill="none" opacity="1" stroke="#000000" stroke-linecap="round" stroke-linejoin="bevel" stroke-width="20"/>
<path d="M132.5 52.826L132.5 12.3996" fill="none" opacity="1" stroke="#000000" stroke-linecap="round" stroke-linejoin="bevel" stroke-width="20"/>
<path d="M188.838 76.162L217.424 47.5762" fill="none" opacity="1" stroke="#000000" stroke-linecap="round" stroke-linejoin="bevel" stroke-width="20"/>
<path d="M12.4023 123.509L52.8288 123.509" fill="none" opacity="1" stroke="#000000" stroke-linecap="round" stroke-linejoin="bevel" stroke-width="20"/>
<path d="M53.9356 41.2207L82.5214 69.8065" fill="none" opacity="1" stroke="#000000" stroke-linecap="round" stroke-linejoin="bevel" stroke-width="20"/>
</g>
</svg>
